<svg xmlns="http://www.w3.org/2000/svg" viewBox="0 0 454 454"><defs><style>.cls-1{fill:#f7f7e7;}.cls-2,.cls-6{fill:none;}.cls-2{stroke:#4e622c;stroke-miterlimit:10;}.cls-3{font-size:26.5px;letter-spacing:0.18em;}.cls-3,.cls-4,.cls-5{fill:#4e622c;}.cls-3,.cls-4{font-family:LinBiolinumO, Linux Biolinum O;}.cls-4{font-size:16px;letter-spacing:0.38em;}</style></defs><g id="Layer_1" data-name="Layer 1"><rect class="cls-1" width="454" height="454"/></g><g id="Layer_2" data-name="Layer 2"><path class="cls-2" d="M87.1,115.07A177,177,0,1,1,280.7,392.65"/><text class="cls-3" transform="translate(153.62 207.41)">EMBRACE</text><text class="cls-3" transform="translate(127.09 252.34)">COFFEE CO.</text><text class="cls-4" transform="translate(166.86 304.45)">EST. 2021</text></g><g id="Layer_3" data-name="Layer 3"><path class="cls-5" d="M63.74,198.08c-.63,3.74,1.19,8.14-.51,12.74a6.5,6.5,0,0,0,.39,4.86A117,117,0,0,0,75.33,235.1c2-.55-.31-5.8,1.4-6.21,1.62,1.19,1.89,6,2.16,7.56.35,2-1.12,5.23,1.53,5.52,2.25.24,2.39-3.15,2.94-5.13,2.16-7.8,1-15.5-.93-23.16-.36-1.43-1.17-5.2.19-6.23,1.76-1.34,2.59,1,3.58,1.72,6.5,5.09,7.62,14.67,8.78,22.22s.16,15.19-.29,22.82c-.07,1.07-.6,2.62-1.4,3.07-5.63,3.09-6.11,8.69-7.21,14a2.23,2.23,0,0,1-1.67,2.05c-1.34-1.71-2.67-3.62-2.25-5.43.63-2.75,2.89-6.37,2.48-9.3a2.22,2.22,0,0,1,2.11-2.78c5.19-.87,6.76-4.2,6.28-7.8-.68-5,0-9.94-.33-14.89-.38-5.5-2.7-12.46-5.38-17.53-1.54,1.74-.66,5.33-.36,6.63,2,9-.76,17.46-2.85,26-1,3.86-1.5,7.82-2.29,11.73-.22,1.06-.21,2.66-1.87,2.33-1.23-.25-1.13-1.65-.85-2.53,3.21-10.19-3-17.52-7.67-25.27-2.64-4.43-5.86-8.51-8.44-13s-3.93-8.71-1.3-14c1.57-3.18-.66-7.08-1.53-10.61-.55-2.22-2.93-7.32.28-8.55,2.94-1.14,4.41,4.22,5.66,6.51a67,67,0,0,1,6.25,16.8c.37,1.54,1.13,3.91-.9,4.3-2.18.42-2-2.23-2.33-3.68A42.3,42.3,0,0,0,63.74,198.08Z"/><path class="cls-5" d="M132.5,378.7s-1.63-.4-2.44-.66c-7.54-2.42-15-8-23.1-9.59-1.75-.35-6.12-.83-6.12.89,0,1.09,3.3,1.54,4.94,2.5,9.06,5.33,18.18,13.31,29.91,11.36,1.27-.22,2.64-1,3.93-.45,0,0-1.07,2.33-1.64,3.77-.43,1.1-.46,2.24-2.17,3.05,2.63,2.16,6.2.85,8.53,1.43-1.73,3.82-4.35,4.71-9.06,4.05-6.33-.88-8.87-6.68-14.34-9.05-8.77-3.78-14.89-10.69-23.42-14.93-.74-.37-2.4-1.47-2.24-2.43.27-1.57,1-1.54,2.27-1.82a25.09,25.09,0,0,1,17,2.2c5.21,2.55,11,4.1,15.64,7.63C131,377.27,133,377.77,132.5,378.7Z"/><path class="cls-5" d="M128.14,322.41c-5.24-2.82-5.13-12.66-5.3-26.09,2.75,1.62,2.28,6.13,2.87,8.3.44,1.62.46,3.24,2.59,3.73s3.55-.67,3.46-2.13c-.12-2.09.65-5.36,4.17-3.9-2.36,3.6-1.42,10.94-7.64,11.49-2.1.19-1.28,1.84-1.06,3.09C127.55,318.71,129.47,320.29,128.14,322.41Z"/><path class="cls-5" d="M69.8,335.76c10.3-2.11,19.79,6.91,28.77,8.5,1.05.19,2.66.14,2.18,1.92-.36,1.35-1.68,1.54-2.87,1.42-3.17-.32-6.29-.94-8.93-2.83a9.64,9.64,0,0,0-7.53-2C76.52,343.77,72.23,338.81,69.8,335.76Z"/><path class="cls-5" d="M132.47,321.77c-.94,8.64-6.68,19.38-3.79,29.44-5.12-5.43-6.28-20.84-2.8-28.08,1.53,3.08.69,8.6.75,11.61C129.42,332.11,127.25,323.36,132.47,321.77Z"/><path class="cls-5" d="M185.35,402.92s3.12-.51,3.63,0,2.05-.51,1.92-1.53,0-3.83-.64-4.09-2.43-.76-3.19,0-2.3,1.52-2.55,2.68S185.35,402.92,185.35,402.92Z"/><path class="cls-5" d="M166.41,362.46c1.25,2.41-1.56,3.8-3.89,6.1a8.29,8.29,0,0,0-1.52,9.69c1.24,2.72,2.41,5.47,3.57,8.22.41,1,1.59,2.25,0,3-1.31.6-2-.88-2.58-1.82a34.59,34.59,0,0,1-4.48-11c-1-4.89-2.44-9.43-6-13.39-3.71-4.13-4.61-11.46-3.41-17,1.39-6.44,6.19-8.25,11.42-4.26a15.62,15.62,0,0,1,2.23,2c.94,1,3,4.24,1.86,5.54-1.39,1.58-2.36-2.75-3.45-3.52-2.11-1.49-4-4.73-6.64-3.54-3,1.33-2.44,7.12-2.64,10a8.46,8.46,0,0,0,.58,3.9c1,2.16.89,5.45,3.81,5.87,1.63.23,2.65-2.38,5.06-2.47,3.44-.13-.17-5.47,1.86-7,1.49,1.25,2.09,3.72,2.78,5.08.4.57-2.46,2.82-3.36,3.33s-3.19,2.17-3.19,2.17a1.6,1.6,0,0,0,1.15,1.66c1.28.39,5.44-2.68,5.44-2.68S166.2,362.05,166.41,362.46Z"/><path class="cls-6" d="M67.69,244.82c-2.23-7.68-6.49-14.36-11.07-20.85,1.62,15.69,8.29,29.66,14.07,43.91.36.88,1,2.06,2.19,1.32s.7-2.11.41-3.22C71.46,258.91,69.73,251.82,67.69,244.82Z"/><path class="cls-6" d="M67.69,244.82c-2.23-7.68-6.49-14.36-11.07-20.85,1.62,15.69,8.29,29.66,14.07,43.91.36.88,1,2.06,2.19,1.32s.7-2.11.41-3.22C71.46,258.91,69.73,251.82,67.69,244.82Z"/><path class="cls-6" d="M38.39,241.34c-.68-.93-7.41-8.43-8.34-6-.47,1.19,4.51,9.13,5.19,9.73s6.47,2.61,7.83,2.27S39.07,242.26,38.39,241.34Z"/><path class="cls-5" d="M183.29,406c-14.39-8.43-26.89-19.62-41.32-28-2.56-1.49-3.76-3.33-4.56-6.48-1.19-4.69-2.52-11.58-5.55-16.51-.35-.57-.36-1.24-1.06-1.14-.9.13-.49,1.06-.52,1.78-.08,2.16.75,5.77.74,7.41,0,1.41.4,3.26-1.8,3.44-1.61.13-7.41-6.42-6.68-7.89,1-2-.06-3-1.5-3.78-12.64-7-18.36-17.32-19.76-31.14-.4-4-.1-8.52,2.47-11.66,7.58-9.26,5.73-23-4.34-27.29-1.39-.59-5.57-3.06-6.34-1-.36,1,5.43,3.2,6.62,4.29,3.68,3.4,5.64,6.33,6.2,11.24.22,1.86.82,4.89-1.56,5.8-1.88.71-3.82-3.89-5.13-5.07-.5-.45-1-.9-1.78-.44-1,1.89,2.44,7.1,1.12,7.46-5,1.41-1.46,4.58-1.9,6.82-.34,1.75,1.44,3.63-.27,6.07-4.57-8.83-8.2-17.31-9.93-26.58-.42-2.25-1.9-9.41-4.41-8.71-2.8.77-.12,7.57.42,10,.57,2.62,1.78,5.09,2.13,7.78.11.83.89,2.77,0,2.56-.35-.09-.66-1.59-1-2.39-2.75-6.86-5.08-13.86-7.38-20.87a2.13,2.13,0,0,1,.93-2.58c3.31-2.49,2.62-6.17,2.66-9.6,0-.74-.23-3.25-1.16-2.6-4.26,2.95-3.17-.69-3.44-1.72-1.64-6.42-2.7-13-4.3-19.44-3-12-9.74-22.15-17.08-31.9A2.54,2.54,0,0,0,51,212.65c-.75,1.84,0,3.7.58,5.55,3.05,10.54,4.32,21.57,8.71,31.75.37.84.91,2,0,2.79s-1.92.23-2.74-.32c-6.75-4.5-14.35-7.8-19.28-14.78-1.77-2.51-3.73-6.46-7-7.09a39.74,39.74,0,0,1-14.32-5.82c-1.72-1.1-3.41-2.68-5.84-1.9.11.56.06,1,.24,1.16a17.77,17.77,0,0,0,2.49,1.63c7.32,3.89,12.22,10.07,16.47,17,1.23,2-.24,4.81,2.33,6.28a237.8,237.8,0,0,0,22.51,11.85c.77.34,1.87,1,2.91-.69-2.36-1.43-4.75-2.81-7.06-4.3-.82-.53-1.67-1.36-1-2.45A1.69,1.69,0,0,1,52.3,253c4.91,2.77,10.71,4.91,13,10.43,3.81,9.23,8.37,18.16,11.28,27.76,2,6.7,7.76,18.82,10.51,24.37a25.09,25.09,0,0,1,1.51,2.92c-.41.41-2-1.33-2.79-1.94-4.16-3.13-5.59-5.63-7.74-12.1C74.87,294.91,71.22,286,60.6,281.9c-3.75-1.44-6.75-4.78-10.24-7-9.4-6.08-19.09-11.56-30.58-12.58-1.32-.11-4.72-.36-3.64,1.35A7.25,7.25,0,0,0,20,265.92c9.87-2.17,15.15,4.17,21.69,8.11-6.9-1-14.22,1-20.56-3.17-.28-.18-.88.14-2.5.46,7.72,4.51,15.69,6.67,22.43,6.05,10-.93,14.33,4.25,21.67,9.64-5.72.32-7.17,2.8-6.09,6.84a34.53,34.53,0,0,0,15.07,20.42c1.21.79,3.08,1.85,4,.24s-1.29-2.24-2.28-3.24c-4.82-4.84-10.58-9-12.79-15.88-.52-1.63-1.89-4.12.29-4.82,1.85-.6,4.68-.59,6.21,1.82a14,14,0,0,1,.76,1.29c2.85,5.65,5.76,11.26,8.5,17,1.33,2.75,3.39,4.67,5.44,7,5.6,6.32,14.64,10.44,18.14,17.19.81,1.56-1.84,1.23-2.64,1.06-12.66-2.76-23.8-9.22-35.45-14.46-2.24-1-4.84-7.52-7.07-5.21-1.53,1.58,3.56,6,5.07,8.06,2.66,3.65,3.83,6.86,5.71,7.64,3.81,1.57.78-1.74,1.27-4.72,8.41,3.37,17,6.8,24.65,9.92,7.36,2.15,13.92,5.16,17.09,13.18.45,1.14,1.75,2,2.71,2.88,3.39,3.21,6.92,6.27,10.18,9.6a170.8,170.8,0,0,0,27.37,23c5.23,3.49,11.69,6,14.21,12.79.25.66,2,1,2.77,1.38,4.26,2.25,7.47,4.3,11.91,6.13,2.11.87,4.42,3.78,7.56,1.82A14.5,14.5,0,0,0,183.29,406ZM43.07,247.3c-1.36.34-7.15-1.68-7.83-2.27s-5.66-8.54-5.19-9.73c.93-2.39,7.66,5.11,8.34,6S44.43,247,43.07,247.3Zm29.81,21.9c-1.14.74-1.83-.44-2.19-1.32C64.91,253.63,58.24,239.66,56.62,224c4.58,6.49,8.84,13.17,11.07,20.85,2,7,3.77,14.09,5.6,21.16C73.58,267.09,74,268.48,72.88,269.2Z"/><path class="cls-5" d="M121.58,292.49s.22-1.53,1.26-1.4,10.1,3.45,10.36,6.26-3.2,1-3.2,1-3.19-4-4.85-4.47A32.14,32.14,0,0,1,121.58,292.49Z"/><path class="cls-5" d="M95.53,294.2s-1-4.94,0-5.11,1.41-1.62,1.5,1.36,1.1,5.11,0,5.11S95.53,294.2,95.53,294.2Z"/><path class="cls-5" d="M80.52,281.43c-.77.26-1-4,0-3.49s2.12,2.81,2.12,2.81-.67,1.7-1.4,1.19"/><path class="cls-5" d="M75.75,227.9s-3.66-2.47-3.4-4.34,1.17-3.15,1.69-2.47,2.39,2.47,2.39,3.66A12.83,12.83,0,0,1,75.75,227.9Z"/></g></svg>